<?xml version="1.0" encoding="iso-8859-1"?>
<!-- Uploaded to: SVG Repo, www.svgrepo.com, Generator: SVG Repo Mixer Tools -->
<svg version="1.1" id="Layer_1" xmlns="http://www.w3.org/2000/svg" xmlns:xlink="http://www.w3.org/1999/xlink" 
	 viewBox="0 0 512 512" xml:space="preserve">
<path style="fill:#F15A24;" d="M288.021,320.787c0-18.815-14.336-32.021-32.021-32.021c-17.685,0-32.021,13.206-32.021,32.021
	H288.021z"/>
<rect x="223.644" y="47.804" style="fill:#FBA218;" width="63.761" height="24.016"/>
<rect x="215.972" y="71.82" style="fill:#027EA8;" width="80.057" height="192.129"/>
<rect x="215.972" y="199.906" style="fill:#84DCCF;" width="80.057" height="64.043"/>
<rect x="328.045" y="119.85" style="fill:#FBA218;" width="176.116" height="96.059"/>
<polygon style="fill:#F15A24;" points="328.047,215.913 424.109,119.851 368.073,119.851 328.047,159.877 "/>
<rect x="7.839" y="119.85" style="fill:#FBA218;" width="176.116" height="96.059"/>
<g>
	<polygon style="fill:#F15A24;" points="71.88,215.913 7.839,151.872 7.839,119.851 31.854,119.851 119.911,215.913 	"/>
	<polygon style="fill:#F15A24;" points="183.953,215.913 119.911,151.872 87.891,119.851 143.927,119.851 183.953,159.877 	"/>
	<polygon style="fill:#F15A24;" points="440.12,215.913 504.162,151.872 504.162,119.851 480.146,119.851 392.089,215.913 	"/>
</g>
<g>
	<rect x="247.685" y="96.059" style="fill:#FFFFFF;" width="16.724" height="15.679"/>
	<rect x="247.685" y="128.463" style="fill:#FFFFFF;" width="16.724" height="15.679"/>
	<rect x="247.685" y="159.82" style="fill:#FFFFFF;" width="16.724" height="15.679"/>
	<rect x="247.685" y="192.223" style="fill:#FFFFFF;" width="16.724" height="15.679"/>
	<rect x="247.685" y="223.581" style="fill:#FFFFFF;" width="16.724" height="15.679"/>
</g>
<rect x="247.685" y="343.786" width="16.724" height="15.679"/>
<path style="fill:#84DCCF;" d="M256,392.004c-21.979,0-39.86-17.91-39.86-39.86h15.679c0,13.588,10.848,24.181,24.181,24.181
	c13.333,0,24.181-10.593,24.181-24.181h15.679C295.86,374.096,277.979,392.004,256,392.004z"/>
<path style="fill:#027EA8;" d="M256,424.026c-39.635,0-71.88-32.162-71.88-71.882h15.679c0,31.358,25.212,56.203,56.202,56.203
	c30.991,0,56.203-24.845,56.203-56.203h15.679C327.882,391.865,295.635,424.026,256,424.026z"/>
<path style="fill:#84DCCF;" d="M256,456.046c-57.291,0-103.901-46.412-103.901-103.901h15.679c0,48.082,39.576,88.222,88.222,88.222
	s88.222-40.14,88.222-88.222h15.679C359.901,409.635,313.292,456.046,256,456.046z"/>
<path style="fill:#027EA8;" d="M256,488.068c-74.948,0-135.923-60.664-135.923-135.923h15.679
	c0,65.851,53.941,120.244,120.244,120.244s120.244-54.392,120.244-120.244h15.679C391.923,427.404,330.948,488.068,256,488.068z"/>
<polygon points="263.367,39.611 263.367,23.932 247.688,23.932 247.688,39.611 223.647,39.611 223.647,55.29 287.408,55.29 
	287.408,39.611 "/>
<path d="M320.207,112.011v47.805h-16.342V63.98h-95.731v95.837h-16.342v-47.805H0v111.742h191.793v-48.258h16.342v96.288h39.554
	v9.43c-18.406,3.64-31.358,19.214-31.358,39.05v7.839h79.44v-7.839c0-20.208-13.445-35.985-32.403-39.234v-9.246h40.499v-96.288
	h16.342v48.258H512V112.011H320.207z M15.679,208.074v-36.609l36.609,36.609H15.679z M74.462,208.074l-58.783-58.784V127.69H27.94
	l80.384,80.384H74.462z M130.5,208.074L50.116,127.69h33.861l80.384,80.384H130.5z M176.114,197.654l-69.962-69.963h33.861
	l36.101,36.101V197.654z M176.114,141.616l-13.926-13.926h13.926V141.616z M279.028,312.425h-46.056
	c3.035-9.809,11.798-16.342,23.028-16.342C267.23,296.084,275.993,302.617,279.028,312.425z M288.187,192.219h-16.458v15.679h16.458
	v48.206h-64.373v-48.206h16.558v-15.679h-16.558V79.659h64.373V192.219z M496.321,148.625l-59.45,59.45h-33.86l80.383-80.384h12.928
	L496.321,148.625L496.321,148.625z M335.886,163.124l35.434-35.434h33.862l-69.297,69.297V163.124z M427.358,127.69h33.861
	l-80.383,80.384h-33.862L427.358,127.69z M349.145,127.69l-13.26,13.26v-13.26H349.145z M459.046,208.074l37.275-37.275v37.275
	H459.046z"/>
</svg>